<svg version="1.1" id="Layer_1" xmlns="http://www.w3.org/2000/svg" xmlns:xlink="http://www.w3.org/1999/xlink" x="0px" y="0px"
	 width="100%" viewBox="0 0 1024 1024" enable-background="new 0 0 1024 1024" xml:space="preserve">
<path fill="#0D172D" opacity="1.000000" stroke="none" 
	d="
M492.000000,1025.000000 
	C328.000000,1025.000000 164.500000,1025.000000 1.000000,1025.000000 
	C1.000000,683.666687 1.000000,342.333344 1.000000,1.000000 
	C342.333344,1.000000 683.666687,1.000000 1025.000000,1.000000 
	C1025.000000,342.333344 1025.000000,683.666687 1025.000000,1025.000000 
	C847.500000,1025.000000 670.000000,1025.000000 492.000000,1025.000000 
M760.676025,435.299957 
	C760.261353,433.537292 759.986145,431.727631 759.410522,430.019165 
	C753.316467,411.933746 744.126526,395.363556 734.660217,378.887848 
	C713.003174,341.194641 683.659973,311.098999 645.939331,289.521576 
	C590.143433,257.604492 530.180237,247.883163 467.055054,258.324463 
	C418.285309,266.391327 375.078888,286.729797 338.254395,320.062653 
	C317.017822,339.285583 300.882843,362.311096 286.589508,387.003784 
	C258.164368,436.110138 247.277618,488.693451 255.408234,544.640503 
	C265.858917,616.552246 300.086243,675.326111 357.085632,720.505493 
	C379.845398,738.545532 405.145966,752.118164 433.657501,760.853149 
	C483.543121,775.755310 533.953491,776.964050 583.958618,763.146851 
	C653.953003,743.806335 705.240540,699.862915 739.831177,636.790222 
	C773.706909,575.021118 782.541199,509.660950 763.061646,441.259094 
	C762.543823,439.440643 761.410156,437.797577 760.676025,435.299957 
z"/>
<path fill="#FF4D4D" opacity="1.000000" stroke="none" 
	d="
M433.079163,760.509521 
	C405.145966,752.118164 379.845398,738.545532 357.085632,720.505493 
	C300.086243,675.326111 265.858917,616.552246 255.408234,544.640503 
	C247.277618,488.693451 258.164368,436.110138 286.589508,387.003784 
	C300.882843,362.311096 317.017822,339.285583 338.254395,320.062653 
	C375.078888,286.729797 418.285309,266.391327 467.055054,258.324463 
	C530.180237,247.883163 590.143433,257.604492 645.939331,289.521576 
	C683.659973,311.098999 713.003174,341.194641 734.660217,378.887848 
	C744.126526,395.363556 753.316467,411.933746 759.410522,430.019165 
	C759.986145,431.727631 760.261353,433.537292 760.408936,435.958069 
	C759.771179,437.540649 759.283875,438.436218 759.046753,439.393738 
	C751.990540,467.883514 740.501099,494.556488 725.980896,519.976746 
	C709.899841,548.129517 690.756714,573.657104 664.283508,593.113098 
	C641.737488,609.682922 616.587341,619.636719 588.727905,619.392944 
	C566.400879,619.197510 544.192322,619.101318 522.061279,621.972839 
	C495.904297,625.366577 472.653595,634.789612 454.366730,654.775208 
	C425.958069,685.822937 418.430115,720.886597 433.079163,760.509521 
M332.496887,353.978760 
	C317.079041,378.969604 307.355103,405.911133 304.368561,435.189606 
	C305.266663,434.712219 305.690979,434.044434 306.113556,433.375580 
	C321.932495,408.338531 337.740723,383.294678 353.582306,358.271942 
	C355.794739,354.777283 358.635193,351.601318 360.353333,347.892609 
	C362.492340,343.275269 360.917938,338.282623 357.314789,335.804871 
	C353.137726,332.932495 349.021393,333.771393 345.286530,336.591888 
	C343.466309,337.966461 341.911316,339.814423 340.583740,341.693542 
	C337.896027,345.498016 335.445129,349.469818 332.496887,353.978760 
M385.089325,300.475677 
	C379.667816,296.334595 376.122040,295.966400 371.243530,300.174866 
	C367.502991,303.401642 364.056915,307.152649 361.212708,311.187103 
	C358.006226,315.735474 359.329926,321.396454 363.503571,324.529358 
	C367.799957,327.754333 372.944885,327.191925 376.951294,322.992584 
	C379.247650,320.585693 381.389374,318.028442 383.730347,315.667450 
	C388.686554,310.668945 389.157654,307.326965 385.089325,300.475677 
M303.491882,437.488953 
	C303.491882,437.488953 303.509155,437.524323 303.491882,437.488953 
z"/>
<path fill="#B23636" opacity="1.000000" stroke="none" 
	d="
M433.368347,760.681335 
	C418.430115,720.886597 425.958069,685.822937 454.366730,654.775208 
	C472.653595,634.789612 495.904297,625.366577 522.061279,621.972839 
	C544.192322,619.101318 566.400879,619.197510 588.727905,619.392944 
	C616.587341,619.636719 641.737488,609.682922 664.283508,593.113098 
	C690.756714,573.657104 709.899841,548.129517 725.980896,519.976746 
	C740.501099,494.556488 751.990540,467.883514 759.046753,439.393738 
	C759.283875,438.436218 759.771179,437.540649 760.352783,436.344452 
	C761.410156,437.797577 762.543823,439.440643 763.061646,441.259094 
	C782.541199,509.660950 773.706909,575.021118 739.831177,636.790222 
	C705.240540,699.862915 653.953003,743.806335 583.958618,763.146851 
	C533.953491,776.964050 483.543121,775.755310 433.368347,760.681335 
z"/>
<path fill="#FFFCFC" opacity="1.000000" stroke="none" 
	d="
M332.696747,353.675690 
	C335.445129,349.469818 337.896027,345.498016 340.583740,341.693542 
	C341.911316,339.814423 343.466309,337.966461 345.286530,336.591888 
	C349.021393,333.771393 353.137726,332.932495 357.314789,335.804871 
	C360.917938,338.282623 362.492340,343.275269 360.353333,347.892609 
	C358.635193,351.601318 355.794739,354.777283 353.582306,358.271942 
	C337.740723,383.294678 321.932495,408.338531 306.113556,433.375580 
	C305.690979,434.044434 305.266663,434.712219 304.368561,435.189606 
	C307.355103,405.911133 317.079041,378.969604 332.696747,353.675690 
z"/>
<path fill="#FFFBFB" opacity="1.000000" stroke="none" 
	d="
M385.346588,300.753876 
	C389.157654,307.326965 388.686554,310.668945 383.730347,315.667450 
	C381.389374,318.028442 379.247650,320.585693 376.951294,322.992584 
	C372.944885,327.191925 367.799957,327.754333 363.503571,324.529358 
	C359.329926,321.396454 358.006226,315.735474 361.212708,311.187103 
	C364.056915,307.152649 367.502991,303.401642 371.243530,300.174866 
	C376.122040,295.966400 379.667816,296.334595 385.346588,300.753876 
z"/>
<path fill="#FFFCFC" opacity="1.000000" stroke="none" 
	d="
M303.500519,437.506653 
	C303.509155,437.524323 303.491882,437.488953 303.500519,437.506653 
z"/>
</svg>